<mxfile host="app.diagrams.net" modified="2021-05-21T09:41:39.681Z" agent="5.0 (Windows NT 10.0; Win64; x64) AppleWebKit/537.36 (KHTML, like Gecko) Chrome/90.0.4430.212 Safari/537.36" etag="pB0wyspYaywgXupDysri" version="14.6.13" type="github">
  <diagram id="yirRT8rYxveimB44vjDH" name="Page-1">
    <mxGraphModel dx="1117" dy="637" grid="1" gridSize="10" guides="1" tooltips="1" connect="1" arrows="1" fold="1" page="1" pageScale="1" pageWidth="827" pageHeight="1169" math="0" shadow="0">
      <root>
        <mxCell id="0" />
        <mxCell id="1" parent="0" />
        <mxCell id="RZa_0dWCWmhXUJ-nWPTq-1" value="" style="whiteSpace=wrap;html=1;aspect=fixed;" vertex="1" parent="1">
          <mxGeometry x="222.5" y="302" width="510" height="510" as="geometry" />
        </mxCell>
        <mxCell id="HFI7vEe_7VzBZN3WjmS7-1" value="Sócio Operacional" style="shape=umlActor;verticalLabelPosition=bottom;verticalAlign=top;html=1;outlineConnect=0;align=center;" parent="1" vertex="1">
          <mxGeometry x="134" y="690" width="30" height="60" as="geometry" />
        </mxCell>
        <mxCell id="42sxagaAuDB2VtNQQJ92-7" style="edgeStyle=none;rounded=0;orthogonalLoop=1;jettySize=auto;html=1;exitX=1;exitY=0.5;exitDx=0;exitDy=0;entryX=0;entryY=0.67;entryDx=0;entryDy=0;entryPerimeter=0;dashed=1;fontSize=11;startArrow=none;startFill=0;endArrow=blockThin;endFill=1;" parent="1" source="HFI7vEe_7VzBZN3WjmS7-5" target="HFI7vEe_7VzBZN3WjmS7-39" edge="1">
          <mxGeometry relative="1" as="geometry" />
        </mxCell>
        <mxCell id="HFI7vEe_7VzBZN3WjmS7-5" value="Gerenciar &lt;br&gt;receita" style="ellipse;whiteSpace=wrap;html=1;" parent="1" vertex="1">
          <mxGeometry x="275" y="644" width="100" height="40" as="geometry" />
        </mxCell>
        <mxCell id="42sxagaAuDB2VtNQQJ92-8" style="edgeStyle=none;rounded=0;orthogonalLoop=1;jettySize=auto;html=1;exitX=1;exitY=0.5;exitDx=0;exitDy=0;dashed=1;fontSize=11;startArrow=none;startFill=0;endArrow=blockThin;endFill=1;" parent="1" source="HFI7vEe_7VzBZN3WjmS7-9" target="HFI7vEe_7VzBZN3WjmS7-39" edge="1">
          <mxGeometry relative="1" as="geometry" />
        </mxCell>
        <mxCell id="HFI7vEe_7VzBZN3WjmS7-9" value="Controlar fluxo &lt;br&gt;de caixa" style="ellipse;whiteSpace=wrap;html=1;" parent="1" vertex="1">
          <mxGeometry x="275" y="690" width="100" height="40" as="geometry" />
        </mxCell>
        <mxCell id="42sxagaAuDB2VtNQQJ92-6" style="edgeStyle=none;rounded=0;orthogonalLoop=1;jettySize=auto;html=1;exitX=1;exitY=0.5;exitDx=0;exitDy=0;entryX=0;entryY=0.5;entryDx=0;entryDy=0;dashed=1;fontSize=11;startArrow=none;startFill=0;endArrow=blockThin;endFill=1;" parent="1" source="HFI7vEe_7VzBZN3WjmS7-15" target="HFI7vEe_7VzBZN3WjmS7-39" edge="1">
          <mxGeometry relative="1" as="geometry" />
        </mxCell>
        <mxCell id="HFI7vEe_7VzBZN3WjmS7-15" value="Gerenciar &lt;br&gt;serviços" style="ellipse;whiteSpace=wrap;html=1;" parent="1" vertex="1">
          <mxGeometry x="275" y="598" width="100" height="40" as="geometry" />
        </mxCell>
        <mxCell id="42sxagaAuDB2VtNQQJ92-9" style="edgeStyle=none;rounded=0;orthogonalLoop=1;jettySize=auto;html=1;exitX=1;exitY=0.5;exitDx=0;exitDy=0;entryX=0.3;entryY=0.97;entryDx=0;entryDy=0;entryPerimeter=0;dashed=1;fontSize=11;startArrow=none;startFill=0;endArrow=blockThin;endFill=1;" parent="1" source="HFI7vEe_7VzBZN3WjmS7-16" target="HFI7vEe_7VzBZN3WjmS7-39" edge="1">
          <mxGeometry relative="1" as="geometry" />
        </mxCell>
        <mxCell id="HFI7vEe_7VzBZN3WjmS7-16" value="Gerenciar&lt;br&gt;fornecedores" style="ellipse;whiteSpace=wrap;html=1;" parent="1" vertex="1">
          <mxGeometry x="275" y="740" width="100" height="40" as="geometry" />
        </mxCell>
        <mxCell id="42sxagaAuDB2VtNQQJ92-5" style="edgeStyle=none;rounded=0;orthogonalLoop=1;jettySize=auto;html=1;exitX=1;exitY=0.5;exitDx=0;exitDy=0;entryX=0.01;entryY=0.268;entryDx=0;entryDy=0;entryPerimeter=0;dashed=1;fontSize=11;startArrow=none;startFill=0;endArrow=blockThin;endFill=1;" parent="1" source="HFI7vEe_7VzBZN3WjmS7-17" target="HFI7vEe_7VzBZN3WjmS7-39" edge="1">
          <mxGeometry relative="1" as="geometry" />
        </mxCell>
        <mxCell id="HFI7vEe_7VzBZN3WjmS7-17" value="Gerir notas fiscais" style="ellipse;whiteSpace=wrap;html=1;" parent="1" vertex="1">
          <mxGeometry x="260" y="514" width="100" height="40" as="geometry" />
        </mxCell>
        <mxCell id="HFI7vEe_7VzBZN3WjmS7-22" value="" style="endArrow=classic;html=1;entryX=-0.016;entryY=0.556;entryDx=0;entryDy=0;entryPerimeter=0;" parent="1" target="HFI7vEe_7VzBZN3WjmS7-15" edge="1">
          <mxGeometry width="50" height="50" relative="1" as="geometry">
            <mxPoint x="170" y="700" as="sourcePoint" />
            <mxPoint x="254" y="650" as="targetPoint" />
          </mxGeometry>
        </mxCell>
        <mxCell id="HFI7vEe_7VzBZN3WjmS7-23" value="" style="endArrow=classic;html=1;entryX=-0.024;entryY=0.556;entryDx=0;entryDy=0;entryPerimeter=0;" parent="1" target="HFI7vEe_7VzBZN3WjmS7-5" edge="1">
          <mxGeometry width="50" height="50" relative="1" as="geometry">
            <mxPoint x="170" y="710" as="sourcePoint" />
            <mxPoint x="264" y="660" as="targetPoint" />
          </mxGeometry>
        </mxCell>
        <mxCell id="HFI7vEe_7VzBZN3WjmS7-24" value="" style="endArrow=classic;html=1;entryX=0;entryY=0.5;entryDx=0;entryDy=0;" parent="1" target="HFI7vEe_7VzBZN3WjmS7-9" edge="1">
          <mxGeometry width="50" height="50" relative="1" as="geometry">
            <mxPoint x="170" y="720" as="sourcePoint" />
            <mxPoint x="264" y="670" as="targetPoint" />
          </mxGeometry>
        </mxCell>
        <mxCell id="HFI7vEe_7VzBZN3WjmS7-25" value="" style="endArrow=classic;html=1;entryX=0;entryY=0;entryDx=0;entryDy=0;" parent="1" target="HFI7vEe_7VzBZN3WjmS7-17" edge="1">
          <mxGeometry width="50" height="50" relative="1" as="geometry">
            <mxPoint x="170" y="460" as="sourcePoint" />
            <mxPoint x="280" y="520" as="targetPoint" />
          </mxGeometry>
        </mxCell>
        <mxCell id="HFI7vEe_7VzBZN3WjmS7-26" value="" style="endArrow=classic;html=1;entryX=0;entryY=0.5;entryDx=0;entryDy=0;" parent="1" target="HFI7vEe_7VzBZN3WjmS7-16" edge="1">
          <mxGeometry width="50" height="50" relative="1" as="geometry">
            <mxPoint x="170" y="730" as="sourcePoint" />
            <mxPoint x="324" y="880" as="targetPoint" />
          </mxGeometry>
        </mxCell>
        <mxCell id="HFI7vEe_7VzBZN3WjmS7-27" value="Sócio Comercial" style="shape=umlActor;verticalLabelPosition=bottom;verticalAlign=top;html=1;outlineConnect=0;align=center;" parent="1" vertex="1">
          <mxGeometry x="134" y="410" width="30" height="60" as="geometry" />
        </mxCell>
        <mxCell id="42sxagaAuDB2VtNQQJ92-1" style="edgeStyle=none;rounded=0;orthogonalLoop=1;jettySize=auto;html=1;exitX=0.996;exitY=0.39;exitDx=0;exitDy=0;entryX=-0.001;entryY=0.61;entryDx=0;entryDy=0;entryPerimeter=0;dashed=1;fontSize=11;startArrow=none;startFill=0;endArrow=blockThin;endFill=1;exitPerimeter=0;" parent="1" source="HFI7vEe_7VzBZN3WjmS7-29" target="HFI7vEe_7VzBZN3WjmS7-88" edge="1">
          <mxGeometry relative="1" as="geometry" />
        </mxCell>
        <mxCell id="HFI7vEe_7VzBZN3WjmS7-29" value="Enviar faturamentos" style="ellipse;whiteSpace=wrap;html=1;" parent="1" vertex="1">
          <mxGeometry x="275" y="345" width="100" height="40" as="geometry" />
        </mxCell>
        <mxCell id="42sxagaAuDB2VtNQQJ92-3" style="edgeStyle=none;rounded=0;orthogonalLoop=1;jettySize=auto;html=1;exitX=0.5;exitY=0;exitDx=0;exitDy=0;entryX=0.691;entryY=1.04;entryDx=0;entryDy=0;entryPerimeter=0;dashed=1;fontSize=11;startArrow=none;startFill=0;endArrow=blockThin;endFill=1;" parent="1" source="HFI7vEe_7VzBZN3WjmS7-31" target="HFI7vEe_7VzBZN3WjmS7-37" edge="1">
          <mxGeometry relative="1" as="geometry" />
        </mxCell>
        <mxCell id="42sxagaAuDB2VtNQQJ92-4" style="edgeStyle=none;rounded=0;orthogonalLoop=1;jettySize=auto;html=1;exitX=0.5;exitY=1;exitDx=0;exitDy=0;entryX=0.317;entryY=0.042;entryDx=0;entryDy=0;entryPerimeter=0;dashed=1;fontSize=11;startArrow=none;startFill=0;endArrow=blockThin;endFill=1;" parent="1" source="HFI7vEe_7VzBZN3WjmS7-31" target="HFI7vEe_7VzBZN3WjmS7-39" edge="1">
          <mxGeometry relative="1" as="geometry" />
        </mxCell>
        <mxCell id="HFI7vEe_7VzBZN3WjmS7-31" value="Gerenciar relações com clientes" style="ellipse;whiteSpace=wrap;html=1;fontSize=11;" parent="1" vertex="1">
          <mxGeometry x="385" y="480" width="100" height="50" as="geometry" />
        </mxCell>
        <mxCell id="HFI7vEe_7VzBZN3WjmS7-34" value="" style="endArrow=classic;html=1;entryX=0;entryY=0;entryDx=0;entryDy=0;" parent="1" target="HFI7vEe_7VzBZN3WjmS7-31" edge="1">
          <mxGeometry width="50" height="50" relative="1" as="geometry">
            <mxPoint x="170" y="450" as="sourcePoint" />
            <mxPoint x="610" y="650" as="targetPoint" />
          </mxGeometry>
        </mxCell>
        <mxCell id="HFI7vEe_7VzBZN3WjmS7-35" value="" style="endArrow=classic;html=1;" parent="1" target="HFI7vEe_7VzBZN3WjmS7-37" edge="1">
          <mxGeometry width="50" height="50" relative="1" as="geometry">
            <mxPoint x="170" y="440" as="sourcePoint" />
            <mxPoint x="354" y="439.5" as="targetPoint" />
          </mxGeometry>
        </mxCell>
        <mxCell id="42sxagaAuDB2VtNQQJ92-2" style="edgeStyle=none;rounded=0;orthogonalLoop=1;jettySize=auto;html=1;exitX=1;exitY=0.5;exitDx=0;exitDy=0;entryX=0.031;entryY=0.75;entryDx=0;entryDy=0;entryPerimeter=0;dashed=1;fontSize=11;startArrow=none;startFill=0;endArrow=blockThin;endFill=1;" parent="1" source="HFI7vEe_7VzBZN3WjmS7-37" target="HFI7vEe_7VzBZN3WjmS7-89" edge="1">
          <mxGeometry relative="1" as="geometry" />
        </mxCell>
        <mxCell id="HFI7vEe_7VzBZN3WjmS7-37" value="Análisar dados" style="ellipse;whiteSpace=wrap;html=1;" parent="1" vertex="1">
          <mxGeometry x="270" y="400" width="100" height="40" as="geometry" />
        </mxCell>
        <mxCell id="HFI7vEe_7VzBZN3WjmS7-38" value="" style="endArrow=classic;html=1;" parent="1" target="HFI7vEe_7VzBZN3WjmS7-29" edge="1">
          <mxGeometry width="50" height="50" relative="1" as="geometry">
            <mxPoint x="170" y="430" as="sourcePoint" />
            <mxPoint x="340" y="500" as="targetPoint" />
          </mxGeometry>
        </mxCell>
        <mxCell id="42sxagaAuDB2VtNQQJ92-10" style="edgeStyle=none;rounded=0;orthogonalLoop=1;jettySize=auto;html=1;exitX=0.978;exitY=0.314;exitDx=0;exitDy=0;entryX=-0.004;entryY=0.717;entryDx=0;entryDy=0;entryPerimeter=0;dashed=1;fontSize=11;startArrow=none;startFill=0;endArrow=blockThin;endFill=1;exitPerimeter=0;" parent="1" source="HFI7vEe_7VzBZN3WjmS7-39" target="HFI7vEe_7VzBZN3WjmS7-95" edge="1">
          <mxGeometry relative="1" as="geometry" />
        </mxCell>
        <mxCell id="42sxagaAuDB2VtNQQJ92-11" style="edgeStyle=none;rounded=0;orthogonalLoop=1;jettySize=auto;html=1;exitX=1.007;exitY=0.376;exitDx=0;exitDy=0;entryX=-0.004;entryY=0.625;entryDx=0;entryDy=0;entryPerimeter=0;dashed=1;fontSize=11;startArrow=none;startFill=0;endArrow=blockThin;endFill=1;exitPerimeter=0;" parent="1" source="HFI7vEe_7VzBZN3WjmS7-39" target="HFI7vEe_7VzBZN3WjmS7-91" edge="1">
          <mxGeometry relative="1" as="geometry" />
        </mxCell>
        <mxCell id="42sxagaAuDB2VtNQQJ92-12" style="edgeStyle=none;rounded=0;orthogonalLoop=1;jettySize=auto;html=1;exitX=1;exitY=0.47;exitDx=0;exitDy=0;entryX=0;entryY=0.5;entryDx=0;entryDy=0;dashed=1;fontSize=11;startArrow=none;startFill=0;endArrow=blockThin;endFill=1;exitPerimeter=0;" parent="1" source="HFI7vEe_7VzBZN3WjmS7-39" target="HFI7vEe_7VzBZN3WjmS7-92" edge="1">
          <mxGeometry relative="1" as="geometry" />
        </mxCell>
        <mxCell id="42sxagaAuDB2VtNQQJ92-13" style="edgeStyle=none;rounded=0;orthogonalLoop=1;jettySize=auto;html=1;exitX=1.018;exitY=0.523;exitDx=0;exitDy=0;entryX=0;entryY=0.5;entryDx=0;entryDy=0;dashed=1;fontSize=11;startArrow=none;startFill=0;endArrow=blockThin;endFill=1;exitPerimeter=0;" parent="1" source="HFI7vEe_7VzBZN3WjmS7-39" target="HFI7vEe_7VzBZN3WjmS7-93" edge="1">
          <mxGeometry relative="1" as="geometry" />
        </mxCell>
        <mxCell id="42sxagaAuDB2VtNQQJ92-14" style="edgeStyle=none;rounded=0;orthogonalLoop=1;jettySize=auto;html=1;exitX=1;exitY=0.574;exitDx=0;exitDy=0;entryX=0;entryY=0.5;entryDx=0;entryDy=0;dashed=1;fontSize=11;startArrow=none;startFill=0;endArrow=blockThin;endFill=1;exitPerimeter=0;" parent="1" source="HFI7vEe_7VzBZN3WjmS7-39" target="HFI7vEe_7VzBZN3WjmS7-94" edge="1">
          <mxGeometry relative="1" as="geometry" />
        </mxCell>
        <mxCell id="HFI7vEe_7VzBZN3WjmS7-39" value="Gerir dados relacionados" style="ellipse;whiteSpace=wrap;html=1;" parent="1" vertex="1">
          <mxGeometry x="427.5" y="549" width="100" height="100" as="geometry" />
        </mxCell>
        <mxCell id="HFI7vEe_7VzBZN3WjmS7-88" value="Coletar faturamentos automáticos" style="ellipse;whiteSpace=wrap;html=1;fontSize=11;" parent="1" vertex="1">
          <mxGeometry x="400" y="330" width="110" height="50" as="geometry" />
        </mxCell>
        <mxCell id="HFI7vEe_7VzBZN3WjmS7-89" value="Dashboard&lt;br style=&quot;font-size: 11px&quot;&gt;inteligente" style="ellipse;whiteSpace=wrap;html=1;fontSize=11;" parent="1" vertex="1">
          <mxGeometry x="447.5" y="400" width="80" height="40" as="geometry" />
        </mxCell>
        <mxCell id="HFI7vEe_7VzBZN3WjmS7-91" value="Excluir" style="ellipse;whiteSpace=wrap;html=1;fontSize=11;" parent="1" vertex="1">
          <mxGeometry x="580" y="572" width="90" height="30" as="geometry" />
        </mxCell>
        <mxCell id="HFI7vEe_7VzBZN3WjmS7-92" value="Incluir" style="ellipse;whiteSpace=wrap;html=1;fontSize=11;" parent="1" vertex="1">
          <mxGeometry x="610" y="602" width="90" height="30" as="geometry" />
        </mxCell>
        <mxCell id="HFI7vEe_7VzBZN3WjmS7-93" value="Alterar" style="ellipse;whiteSpace=wrap;html=1;fontSize=11;" parent="1" vertex="1">
          <mxGeometry x="630" y="634" width="90" height="30" as="geometry" />
        </mxCell>
        <mxCell id="HFI7vEe_7VzBZN3WjmS7-94" value="Buscar" style="ellipse;whiteSpace=wrap;html=1;fontSize=11;" parent="1" vertex="1">
          <mxGeometry x="630" y="664" width="90" height="30" as="geometry" />
        </mxCell>
        <mxCell id="HFI7vEe_7VzBZN3WjmS7-95" value="Exibir" style="ellipse;whiteSpace=wrap;html=1;fontSize=11;" parent="1" vertex="1">
          <mxGeometry x="550" y="542" width="90" height="30" as="geometry" />
        </mxCell>
        <mxCell id="HFI7vEe_7VzBZN3WjmS7-113" value="" style="endArrow=classic;html=1;entryX=0;entryY=1;entryDx=0;entryDy=0;" parent="1" target="HFI7vEe_7VzBZN3WjmS7-17" edge="1">
          <mxGeometry width="50" height="50" relative="1" as="geometry">
            <mxPoint x="170" y="690" as="sourcePoint" />
            <mxPoint x="268.4000000000001" y="560.12" as="targetPoint" />
          </mxGeometry>
        </mxCell>
      </root>
    </mxGraphModel>
  </diagram>
</mxfile>
